<svg width="511" height="512" viewBox="0 0 511 512" fill="none" xmlns="http://www.w3.org/2000/svg">
<path fill-rule="evenodd" clip-rule="evenodd" d="M2.20414 512H21.7462C24.2113 509.345 26.5541 508.003 29.9839 506.764C34.1924 505.011 38.0502 504.134 38.5763 504.836C38.908 505.167 38.8212 508.01 38.404 512H46.6511C46.8705 498.292 46.5052 487.744 45.7657 487.3C45.0643 486.774 42.2587 488.001 39.8037 489.93C37.1734 492.035 33.3156 493.614 31.0361 493.614C25.7754 493.614 25.6 488.703 30.3346 478.708C32.2635 474.85 33.6663 470.291 33.8416 468.713C33.8416 462.399 42.7847 431.187 47.1685 422.244C50.0241 416.161 51.2096 414.12 52.8409 414.07L62.7937 398.146C64.6338 396.306 65.416 392.073 53.8234 389.865C45.8955 388.355 49.3542 380.881 53.9025 377.22C55.7152 374.409 58.1467 370.941 61.1967 366.832C65.2298 361.221 71.5427 350.699 75.4005 343.335C80.3103 333.69 83.9929 328.781 89.604 324.923C93.6372 322.117 96.9688 319.136 96.9688 318.26C96.9688 317.382 94.514 315.98 91.7083 315.279L86.2723 313.875L92.7605 306.862C96.2676 303.003 102.054 295.464 105.736 290.203C112.575 280.383 133.267 258.463 140.457 253.905C145.367 250.574 145.542 243.559 140.807 240.753C138.177 239.001 137.3 236.545 137.3 230.407C137.3 223.569 136.599 221.815 132.916 219.36C128.182 216.203 126.954 208.314 130.637 204.63C132.039 203.228 130.462 200.773 124.149 194.986C115.556 187.271 114.68 183.238 121.694 183.238C123.447 183.238 125.025 182.36 125.025 181.484C125.025 180.431 124.149 179.73 123.097 179.73C122.22 179.73 120.291 177.1 118.888 173.943C117.485 170.612 115.206 167.105 113.803 165.877C110.296 162.896 103.983 150.622 103.983 146.413C103.983 142.03 106.789 142.03 114.153 146.413C124.324 152.551 123.623 150.271 110.822 134.489C95.2153 115.2 83.8175 93.6317 89.604 93.8071C90.3055 93.8071 93.9879 96.2621 97.6703 99.0678C105.035 104.679 109.244 105.731 109.244 102.049C109.244 100.821 103.632 92.4044 96.7934 83.2862C84.168 66.8028 80.3103 59.7887 82.2392 56.8076C83.4667 54.7033 86.4477 54.7033 86.4477 56.8076C86.4477 57.8598 92.5851 64.6986 100.125 72.2387C110.296 82.5847 114.68 88.5466 117.836 96.4375C120.116 102.224 124.675 111.518 128.007 117.129C131.163 122.74 133.793 128.176 133.793 129.404C133.793 130.631 135.722 135.366 138.177 140.276C140.457 145.011 142.561 149.57 142.561 150.271C142.561 151.148 145.367 155.532 148.698 160.266L154.835 168.858L149.575 170.962C144.489 173.067 142.737 176.749 145.893 178.678C146.769 179.204 147.997 181.835 148.698 184.465C149.224 187.271 151.153 190.777 152.731 192.531C155.186 195.337 155.186 196.038 152.556 201.825C149.399 208.314 148.698 221.114 151.153 225.148C152.556 227.426 153.258 227.426 155.712 225.323C157.291 224.095 159.746 220.763 161.148 217.957C162.551 215.327 165.708 212.521 167.987 211.996C173.774 210.592 173.599 205.507 167.987 199.72C160.271 192.006 163.428 189.726 175.351 194.636L175.753 194.808C180.05 196.665 181.762 197.404 182.443 196.859C182.895 196.496 182.893 195.572 182.892 194.033V193.758C182.892 192.006 179.385 186.219 175.001 181.133C160.096 163.599 153.609 151.673 159.045 151.673C160.447 151.673 162.376 152.726 163.077 153.778C166.934 159.915 181.138 166.579 181.138 162.37C181.138 161.494 173.774 152.551 164.831 142.555C155.887 132.736 146.419 121.513 143.788 117.831C138.527 110.817 133.092 99.2432 134.494 97.8403C134.845 97.3143 141.859 102.75 149.925 109.589C168.864 126.072 189.732 139.399 205.688 145.536L207.839 146.362C226.077 153.354 231.717 155.517 237.055 154.93C239.445 154.67 241.775 153.855 245.148 152.68L245.499 152.557L246.02 152.375C255.839 148.868 280.213 150.271 300.028 155.357C307.218 157.11 318.616 158.688 325.279 158.688C331.942 158.688 342.639 159.74 349.128 161.143C355.615 162.546 366.137 164.124 372.625 164.65C391.914 166.404 416.111 179.905 416.111 188.849C416.111 192.006 415.41 192.356 409.624 191.303C405.942 190.777 401.207 190.251 399.102 190.251C396.999 190.251 394.018 189.025 392.615 187.621C389.809 184.815 374.202 178.678 363.507 176.223C360.174 175.347 352.284 173.067 345.97 170.962C339.658 168.858 331.942 166.403 328.61 165.351C322.298 163.422 299.678 161.844 272.147 161.669C256.54 161.494 254.437 161.844 244.967 166.755C236.725 171.138 234.447 173.242 234.095 176.924C233.569 181.133 233.919 181.484 240.759 181.484C246.721 181.484 247.948 182.01 247.422 184.465C247.071 186.219 244.266 189.025 240.934 190.602C232.693 194.636 222.522 203.228 216.91 210.592L212.177 216.731L216.034 220.237C217.963 222.167 219.716 224.445 219.716 225.323C219.716 228.128 222.697 227.426 229.361 222.868C232.868 220.413 236.55 218.308 237.778 217.782C239.18 217.432 239.005 215.853 236.725 212.521C232.868 206.56 234.447 203.228 242.687 199.019C246.37 197.09 249.702 194.811 250.403 193.758C250.929 192.882 254.612 192.006 258.469 192.006C266.01 192.006 268.114 189.55 266.36 182.536C265.835 179.905 263.555 177.977 260.924 177.275C258.469 176.574 256.89 175.347 257.418 174.469C258.995 171.839 272.322 172.366 282.143 175.347C286.876 176.749 292.312 177.977 294.066 177.977C295.819 177.977 300.554 179.379 304.588 181.309C308.62 183.061 316.512 186.394 322.298 188.497C335.625 193.583 337.203 194.986 332.995 198.318C328.26 201.649 325.63 201.474 321.422 197.266C317.037 192.882 316.862 192.882 315.634 197.617C313.355 206.209 326.681 217.607 341.237 219.36C350.705 220.413 350.88 220.413 358.947 213.047C366.487 206.034 367.364 205.683 374.379 206.735C378.586 207.436 385.249 208.312 389.458 208.839C395.596 209.716 396.824 210.592 396.824 213.924C396.824 218.133 389.458 233.564 383.321 242.157C379.463 247.593 356.141 260.393 350.179 260.393C348.25 260.393 345.62 261.269 344.218 262.147C339.132 265.478 345.795 266.88 369.468 267.758C382.268 268.284 394.719 269.686 397.7 270.914C400.681 272.141 409.624 273.72 417.69 274.246C439.434 275.824 439.785 276.876 426.808 303.354C413.306 330.709 409.098 340.004 409.098 342.634C409.098 343.686 407.871 347.017 406.468 349.823C405.065 352.629 402.961 360.169 401.908 366.832C400.856 373.32 399.454 381.913 398.752 385.771C398.226 389.628 398.226 395.942 398.752 399.799C402.786 423.296 404.363 428.206 411.904 438.727C420.496 450.826 423.652 457.315 419.444 453.983C418.041 452.931 414.008 451.527 410.5 450.826L403.837 449.599V470.641C403.837 482.214 404.538 492.035 405.416 492.736C407.871 494.139 410.325 488.703 411.728 478.182L412.955 468.713L417.34 480.812C419.795 487.3 422.425 495.892 423.126 499.751C424.001 503.597 425.921 509.014 427.323 512H438.183C437.523 510.271 437.154 508.949 437.154 508.168C437.154 506.238 435.928 501.328 434.524 497.12C433.122 493.086 431.718 484.669 431.543 478.357L431.017 466.784L436.804 465.205C439.785 464.329 442.415 463.102 442.415 462.399C442.415 461.698 438.557 457.315 433.998 452.756C426.107 445.04 419.62 434.168 414.184 419.964C410.5 410.671 411.027 371.041 415.06 357.714C416.639 351.928 418.918 344.387 419.97 341.056C421.899 334.041 427.335 321.942 437.33 301.601C442.065 292.131 444.168 285.293 444.168 280.383C444.168 271.966 445.922 270.038 461.002 262.322C466.965 259.341 474.329 253.905 477.31 250.574C481.694 246.014 484.149 244.612 487.656 244.962C491.513 245.313 492.566 246.54 493.267 251.625C493.793 255.658 495.197 257.938 497.3 258.288C504.14 259.692 510.802 248.469 510.802 235.668C510.802 228.654 509.751 226.024 503.789 218.483C499.93 213.573 496.073 209.541 495.197 209.541C494.494 209.541 491.163 207.786 487.831 205.508C478.889 199.545 462.581 194.109 447.15 192.006C444.952 191.749 442.798 191.494 440.828 191.26L440.723 191.248C435.987 190.685 432.335 190.251 431.718 190.251C430.842 190.251 424.003 184.64 416.639 177.802C402.434 164.65 392.439 158.864 383.672 158.688C380.165 158.688 376.131 156.584 371.923 152.551C368.24 149.043 365.259 146.062 365.259 145.536C365.259 145.186 361.752 139.399 357.368 132.911C352.985 126.423 349.478 120.461 349.478 119.759C349.478 118.883 347.549 115.2 345.094 111.693C342.639 108.186 340.711 103.627 340.711 101.523C340.711 99.5938 339.132 93.2811 337.203 87.6699C334.923 81.1819 333.696 72.9402 333.696 64.6986C333.696 57.5091 332.82 51.3716 331.767 50.8455C328.61 48.7413 323.174 55.4049 323.174 61.1916C323.174 64.1727 321.948 68.907 320.544 71.7126C318.967 74.5183 317.388 81.7078 316.687 87.4945C316.161 93.4565 314.232 100.646 312.478 103.627C310.55 106.608 309.146 111.518 309.146 114.324C309.146 117.305 307.744 121.513 305.815 123.793C304.061 126.072 301.958 129.93 301.255 132.385C300.554 134.84 298.449 138.523 296.521 140.451C293.365 144.134 291.436 144.31 264.957 144.31C238.304 144.485 236.199 144.134 228.659 140.1C224.276 137.821 219.365 135.892 217.963 135.892C214.455 135.892 197.797 129.579 192.01 125.897C189.38 124.319 182.016 119.584 175.527 115.376C169.039 111.167 163.252 107.835 162.727 107.835C160.447 107.835 132.39 78.5515 128.708 72.2387C126.604 68.7317 124.149 65.7508 123.447 65.7508C122.921 65.7508 121.343 63.2957 120.116 60.1393C118.187 54.8787 118.011 54.7034 114.68 57.6845C112.751 59.438 109.419 60.4902 107.315 60.1393C102.229 59.438 76.1017 30.1539 70.4904 18.7559C68.2109 14.3721 64.8791 9.11156 63.301 7.18266C61.5475 5.25375 60.1447 3.14957 60.1447 2.27279C60.1447 1.57139 59.4432 0.869995 58.5665 0.869995C56.1115 0.869995 55.41 7.88406 57.1637 15.775C58.0404 19.6327 60.32 29.4526 62.249 37.6941C64.0025 45.9357 66.2821 59.6133 67.1588 68.3809C68.0356 76.9732 69.9645 87.3191 71.5427 91.1769C75.2251 100.295 82.7652 115.025 85.5708 118.357C86.7984 119.759 88.2013 127.826 88.7273 136.243C89.4288 150.447 90.1301 152.199 95.9168 160.441C101.002 167.456 102.229 170.787 102.229 177.1C102.229 187.271 105.737 195.688 111.699 199.545C114.329 201.299 115.907 203.403 115.381 204.28C114.855 205.156 115.03 207.261 115.907 209.015C116.156 209.512 116.488 210.163 116.87 210.911L116.875 210.921C117.84 212.808 119.112 215.299 120.116 217.432C121.869 220.938 122.746 227.953 122.746 238.649C122.921 254.606 122.921 254.606 115.907 263.198C112.225 267.933 104.509 278.104 98.7225 285.819C82.0638 308.264 81.0117 309.492 78.5567 309.492C77.3293 309.492 75.4004 310.544 74.3482 311.772C73.2961 313.174 69.4383 315.104 65.5806 316.155C59.2678 318.085 57.5143 319.662 56.8129 324.397C56.6376 325.273 59.0926 326.501 62.249 327.027C67.3342 327.728 68.0356 328.606 68.5617 333.69C69.0876 338.951 66.2821 345.79 56.4622 361.922C55.2348 364.377 48.5713 372.093 41.7326 379.283C35.0691 386.472 29.4578 393.136 29.4578 394.363C29.4578 395.414 33.1402 396.467 38.7515 396.818C46.1163 397.168 47.87 397.87 47.87 400.5C47.87 402.254 46.4671 404.884 44.7136 406.462C39.8037 410.846 28.055 435.396 25.4246 446.268C24.1972 451.527 22.2683 460.997 21.0409 467.31C18.9366 478.883 10.5196 495.542 4.03156 501.503C0.227814 504.991 -0.424476 509.051 2.20414 512ZM348.425 140.801C342.113 130.807 333.696 110.641 333.696 105.381C333.696 100.646 331.066 97.8405 329.312 100.822C328.786 101.698 327.734 106.433 327.208 111.343C326.681 116.077 325.805 120.11 325.279 120.11C324.753 120.11 322.473 118.357 320.194 116.252L316.161 112.57V119.759C316.161 123.617 316.862 128.878 317.914 131.333C318.967 134.314 318.967 135.892 317.738 135.892C316.862 135.892 315.635 134.664 315.108 133.262C313.531 129.053 309.321 130.105 308.095 135.015C305.464 145.536 313.881 149.921 337.203 149.921C345.795 149.921 352.985 149.569 352.985 149.043C352.985 148.517 350.88 144.835 348.425 140.801ZM476.959 206.034C475.733 206.034 471.699 204.455 467.841 202.526C462.581 199.895 457.495 199.019 445.922 199.019C437.68 199.019 430.14 199.72 429.088 200.422C428.036 201.124 426.107 203.929 424.705 206.91C422.951 210.417 420.496 212.346 416.463 213.223C409.974 214.451 403.837 219.36 403.837 223.043C403.837 226.374 394.017 240.753 387.529 246.715C384.606 249.537 383.364 250.738 383.602 251.249C383.777 251.625 384.762 251.625 386.478 251.625C390.335 251.625 417.865 239.351 422.776 235.317C424.003 234.266 429.614 231.635 435.05 229.355C442.941 226.199 448.377 225.323 460.827 225.323C480.291 225.323 492.216 230.056 498.353 240.052C502.736 246.89 504.665 247.768 506.244 243.559C509.4 235.317 507.296 229.706 498.178 220.763C488.182 211.295 480.818 206.034 476.959 206.034ZM472.226 244.61C473.978 244.61 477.485 236.37 476.258 235.142C475.207 234.09 458.899 233.915 455.567 234.967C455.174 235.045 453.828 235.441 451.943 235.996C449.623 236.679 446.485 237.603 443.292 238.473C437.505 240.227 427.511 244.61 421.197 248.294C414.885 252.151 408.397 255.132 406.818 255.132C401.207 255.132 403.837 258.815 411.904 262.147C423.477 267.232 433.648 266.705 446.623 260.393C452.586 257.587 460.651 252.854 464.335 249.871C468.017 247.066 471.523 244.61 472.226 244.61Z" fill="white"/>
</svg>
